<?xml version="1.0" encoding="UTF-8"?>
<svg width="18" height="18" viewBox="0 0 18 18" xmlns="http://www.w3.org/2000/svg">
  <path fill="#0A66C2" d="M16 0H2C0.895 0 0 0.895 0 2v14c0 1.105 0.895 2 2 2h14c1.105 0 2-0.895 2-2V2c0-1.105-0.895-2-2-2zM5.5 15.5h-3v-9h3v9zM4 5.5c-0.828 0-1.5-0.672-1.5-1.5S3.172 2.5 4 2.5 5.5 3.172 5.5 4 4.828 5.5 4 5.5zm11.5 10h-3v-4.704c0-1.116-0.021-2.55-1.551-2.55-1.553 0-1.789 1.214-1.789 2.469v4.785h-3v-9h2.875v1.319h0.041c0.399-0.756 1.374-1.553 2.828-1.553 3.029 0 3.588 1.995 3.588 4.588v4.646z"/>
</svg>
